<svg width="120" height="131" viewBox="0 0 120 131" fill="none" xmlns="http://www.w3.org/2000/svg">
<path d="M45.472 59.192C44.4 59.192 43.576 58.888 43 58.28C42.424 57.672 42.136 56.84 42.136 55.784V48.92H40.888C40.76 48.92 40.624 48.864 40.48 48.752C40.352 48.656 40.288 48.504 40.288 48.296V47.096L42.28 46.784L42.904 43.424C42.92 43.28 42.992 43.16 43.12 43.064C43.248 42.968 43.4 42.92 43.576 42.92H45.112V46.808H48.352V48.92H45.112V55.592C45.112 55.96 45.208 56.256 45.4 56.48C45.592 56.688 45.848 56.792 46.168 56.792C46.392 56.792 46.544 56.776 46.624 56.744L46.936 56.6L47.2 56.456C47.248 56.424 47.312 56.408 47.392 56.408C47.52 56.408 47.6 56.424 47.632 56.456L47.8 56.648L48.688 58.088C48.272 58.424 47.776 58.696 47.2 58.904C46.656 59.096 46.08 59.192 45.472 59.192ZM55.2646 46.496C56.0486 46.496 56.7606 46.616 57.4006 46.856C58.0086 47.08 58.5686 47.448 59.0806 47.96C59.5446 48.424 59.9126 49.008 60.1846 49.712C60.4566 50.432 60.5926 51.216 60.5926 52.064C60.5926 52.256 60.5766 52.448 60.5446 52.64C60.5126 52.816 60.4806 52.928 60.4486 52.976C60.4166 53.056 60.3446 53.12 60.2326 53.168C60.1686 53.2 60.0566 53.216 59.8966 53.216H52.2886C52.3846 54.48 52.7286 55.408 53.3206 56C53.9126 56.592 54.6966 56.888 55.6726 56.888C56.1686 56.888 56.5766 56.832 56.8966 56.72C57.2486 56.608 57.5526 56.48 57.8086 56.336C57.9206 56.272 58.0326 56.216 58.1446 56.168C58.2726 56.104 58.3926 56.04 58.5046 55.976C58.6806 55.864 58.8646 55.808 59.0566 55.808C59.1846 55.808 59.2966 55.832 59.3926 55.88C59.4726 55.912 59.5446 55.976 59.6086 56.072L60.4726 57.152C60.1046 57.568 59.7366 57.896 59.3686 58.136C58.9366 58.408 58.5126 58.616 58.0966 58.76C57.6966 58.888 57.2406 58.992 56.7286 59.072C56.3286 59.136 55.8806 59.168 55.3846 59.168C54.5046 59.168 53.7126 59.032 53.0086 58.76C52.3046 58.488 51.6646 58.064 51.0886 57.488C50.5446 56.944 50.1126 56.256 49.7926 55.424C49.4886 54.624 49.3366 53.672 49.3366 52.568C49.3366 51.768 49.4726 50.984 49.7446 50.216C50.0006 49.496 50.3926 48.848 50.9206 48.272C51.4166 47.728 52.0326 47.296 52.7686 46.976C53.5046 46.656 54.3366 46.496 55.2646 46.496ZM55.3126 48.608C54.4646 48.608 53.7926 48.856 53.2966 49.352C52.8166 49.832 52.5046 50.52 52.3606 51.416H57.9286C57.9286 51.08 57.8726 50.72 57.7606 50.336C57.6646 50.032 57.5046 49.736 57.2806 49.448C57.0726 49.192 56.8006 48.992 56.4646 48.848C56.0966 48.688 55.7126 48.608 55.3126 48.608ZM67.4091 56.84C67.8091 56.936 68.0091 57.184 68.0091 57.584V59H61.4091V57.584C61.4091 57.184 61.6091 56.936 62.0091 56.84L62.1531 56.816L62.5131 56.744L63.2331 56.624V43.544L62.5131 43.424C62.4331 43.408 62.3611 43.392 62.2971 43.376C62.2491 43.36 62.2011 43.352 62.1531 43.352L62.0091 43.328C61.6091 43.232 61.4091 42.984 61.4091 42.584V41.168H66.1851V56.624L66.9051 56.744L67.2651 56.816L67.4091 56.84ZM74.6943 46.496C75.4783 46.496 76.1903 46.616 76.8303 46.856C77.4383 47.08 77.9983 47.448 78.5103 47.96C78.9743 48.424 79.3423 49.008 79.6143 49.712C79.8863 50.432 80.0223 51.216 80.0223 52.064C80.0223 52.256 80.0063 52.448 79.9743 52.64C79.9423 52.816 79.9103 52.928 79.8783 52.976C79.8463 53.056 79.7743 53.12 79.6623 53.168C79.5983 53.2 79.4863 53.216 79.3263 53.216H71.7183C71.8143 54.48 72.1583 55.408 72.7503 56C73.3423 56.592 74.1263 56.888 75.1023 56.888C75.5983 56.888 76.0063 56.832 76.3263 56.72C76.6783 56.608 76.9823 56.48 77.2383 56.336C77.3503 56.272 77.4623 56.216 77.5743 56.168C77.7023 56.104 77.8223 56.04 77.9343 55.976C78.1103 55.864 78.2943 55.808 78.4863 55.808C78.6143 55.808 78.7263 55.832 78.8223 55.88C78.9023 55.912 78.9743 55.976 79.0383 56.072L79.9023 57.152C79.5343 57.568 79.1663 57.896 78.7983 58.136C78.3663 58.408 77.9423 58.616 77.5263 58.76C77.1263 58.888 76.6703 58.992 76.1583 59.072C75.7583 59.136 75.3103 59.168 74.8143 59.168C73.9343 59.168 73.1423 59.032 72.4383 58.76C71.7343 58.488 71.0943 58.064 70.5183 57.488C69.9743 56.944 69.5423 56.256 69.2223 55.424C68.9183 54.624 68.7663 53.672 68.7663 52.568C68.7663 51.768 68.9023 50.984 69.1743 50.216C69.4303 49.496 69.8223 48.848 70.3503 48.272C70.8463 47.728 71.4623 47.296 72.1983 46.976C72.9343 46.656 73.7663 46.496 74.6943 46.496ZM74.7422 48.608C73.8943 48.608 73.2223 48.856 72.7263 49.352C72.2463 49.832 71.9343 50.52 71.7903 51.416H77.3583C77.3583 51.08 77.3023 50.72 77.1903 50.336C77.0943 50.032 76.9343 49.736 76.7103 49.448C76.5023 49.192 76.2303 48.992 75.8943 48.848C75.5263 48.688 75.1423 48.608 74.7422 48.608ZM91.1108 57.152C90.7268 57.584 90.3748 57.912 90.0548 58.136C89.7348 58.344 89.3348 58.552 88.8548 58.76C88.5028 58.888 88.0788 58.992 87.5828 59.072C87.1988 59.136 86.7588 59.168 86.2628 59.168C85.4788 59.168 84.7668 59.032 84.1268 58.76C83.4548 58.472 82.8708 58.056 82.3748 57.512C81.8468 56.936 81.4468 56.272 81.1748 55.52C80.8868 54.72 80.7428 53.816 80.7428 52.808C80.7428 51.896 80.8708 51.064 81.1268 50.312C81.3988 49.544 81.7828 48.872 82.2788 48.296C82.7748 47.736 83.3988 47.296 84.1508 46.976C84.9188 46.656 85.7748 46.496 86.7188 46.496C87.7428 46.496 89.0388 46.792 90.6068 47.384L90.5828 51.176H89.2148C88.9268 51.176 88.7428 51.024 88.6628 50.72L88.4708 48.992C87.8788 48.832 87.3508 48.752 86.8868 48.752C86.3588 48.752 85.9028 48.848 85.5188 49.04C85.1188 49.232 84.7988 49.496 84.5588 49.832C84.2708 50.232 84.0708 50.664 83.9588 51.128C83.8308 51.672 83.7668 52.232 83.7668 52.808C83.7668 53.464 83.8388 54.048 83.9828 54.56C84.1268 55.088 84.3268 55.52 84.5828 55.856C84.8548 56.192 85.1748 56.456 85.5428 56.648C85.9428 56.824 86.3668 56.912 86.8148 56.912C87.3108 56.912 87.6948 56.856 87.9668 56.744C88.3188 56.6 88.5668 56.472 88.7108 56.36C88.7908 56.296 88.8708 56.24 88.9508 56.192C89.0468 56.128 89.1428 56.056 89.2388 55.976C89.3668 55.864 89.5268 55.808 89.7188 55.808C89.9748 55.808 90.1588 55.896 90.2708 56.072L91.1108 57.152ZM97.8784 46.496C98.7584 46.496 99.5904 46.648 100.374 46.952C101.142 47.256 101.782 47.672 102.294 48.2C102.806 48.728 103.206 49.392 103.494 50.192C103.782 50.976 103.926 51.848 103.926 52.808C103.926 53.768 103.782 54.648 103.494 55.448C103.19 56.264 102.79 56.936 102.294 57.464C101.766 58.024 101.126 58.448 100.374 58.736C99.6384 59.024 98.8064 59.168 97.8784 59.168C96.9504 59.168 96.1104 59.024 95.3584 58.736C94.6064 58.448 93.9664 58.024 93.4384 57.464C92.8784 56.888 92.4624 56.216 92.1904 55.448C91.9024 54.648 91.7584 53.768 91.7584 52.808C91.7584 51.848 91.9024 50.976 92.1904 50.192C92.4624 49.456 92.8784 48.792 93.4384 48.2C93.9504 47.672 94.5904 47.256 95.3584 46.952C96.1424 46.648 96.9824 46.496 97.8784 46.496ZM97.8784 56.888C98.9024 56.888 99.6544 56.544 100.134 55.856C100.63 55.136 100.878 54.128 100.878 52.832C100.878 51.536 100.63 50.528 100.134 49.808C99.6544 49.104 98.9024 48.752 97.8784 48.752C96.8544 48.752 96.0864 49.104 95.5744 49.808C95.0624 50.512 94.8064 51.528 94.8064 52.856C94.8064 54.152 95.0624 55.152 95.5744 55.856C96.0704 56.544 96.8384 56.888 97.8784 56.888ZM118.545 56.84C118.945 56.936 119.145 57.184 119.145 57.584V59H114.369V51.176C114.369 50.44 114.193 49.856 113.841 49.424C113.505 49.008 112.985 48.8 112.281 48.8C111.769 48.8 111.289 48.92 110.841 49.16C110.361 49.416 109.937 49.728 109.569 50.096V56.624L110.265 56.744L110.625 56.816L110.769 56.84C111.169 56.936 111.368 57.184 111.368 57.584V59H104.793V57.584C104.793 57.184 104.993 56.936 105.393 56.84L105.537 56.816L105.896 56.744L106.593 56.624V49.064L105.896 48.944C105.817 48.928 105.745 48.912 105.681 48.896C105.633 48.88 105.585 48.872 105.537 48.872L105.393 48.848C104.993 48.752 104.793 48.504 104.793 48.104V46.688H108.417C108.785 46.688 109.033 46.872 109.161 47.24L109.377 48.2C109.601 47.944 109.857 47.712 110.145 47.504C110.369 47.328 110.664 47.152 111.033 46.976C111.449 46.784 111.777 46.664 112.017 46.616C112.417 46.536 112.801 46.496 113.169 46.496C113.873 46.496 114.473 46.608 114.969 46.832C115.433 47.024 115.865 47.344 116.265 47.792C116.601 48.192 116.865 48.688 117.057 49.28C117.233 49.808 117.321 50.44 117.321 51.176V56.624L118.041 56.744C118.121 56.76 118.185 56.776 118.233 56.792C118.297 56.808 118.353 56.816 118.401 56.816L118.545 56.84Z" fill="#0CADD0"/>
<path d="M0.864 89.048V81.128H2.976V59.528H0.864V51.656H14.016V81.128H16.128V89.048H0.864ZM45.6293 81.128V89H32.9573V85.736C32.2533 86.76 31.2613 87.672 29.9813 88.472C28.7333 89.272 27.1973 89.672 25.3733 89.672C22.9733 89.672 21.0853 89.032 19.7093 87.752C18.3333 86.472 17.6453 84.664 17.6453 82.328C17.6453 76.28 22.7813 73.176 33.0533 73.016C32.9573 71.928 32.5413 71.192 31.8053 70.808C31.0693 70.392 29.8213 70.184 28.0613 70.184C26.6213 70.184 25.0693 70.344 23.4053 70.664C21.7733 70.952 20.2693 71.352 18.8933 71.864V63.032C20.5893 62.616 22.4293 62.28 24.4133 62.024C26.3973 61.768 28.3333 61.64 30.2213 61.64C34.9893 61.64 38.3973 62.504 40.4453 64.232C42.4933 65.96 43.5173 68.632 43.5173 72.248V81.128H45.6293ZM32.9573 77.768C31.5173 77.768 30.3973 77.96 29.5973 78.344C28.8293 78.728 28.4453 79.368 28.4453 80.264C28.4453 80.808 28.6053 81.256 28.9253 81.608C29.2773 81.928 29.7573 82.088 30.3653 82.088C31.1973 82.088 31.8373 81.736 32.2853 81.032C32.7333 80.328 32.9573 79.336 32.9573 78.056V77.768ZM79.0485 81.128V89H63.8805V81.128H65.8965V73.256C65.8965 72.2 65.6725 71.432 65.2245 70.952C64.7765 70.44 64.1045 70.184 63.2085 70.184C61.2885 70.184 60.3285 71.208 60.3285 73.256V81.128H62.3445V89H47.1765V81.128H49.2885V70.184H47.1765V62.312H60.3285V66.056C62.6325 63.112 65.5125 61.64 68.9685 61.64C71.6245 61.64 73.6085 62.472 74.9205 64.136C76.2645 65.8 76.9365 68.088 76.9365 71V81.128H79.0485Z" fill="#CF2424"/>
<path d="M100 70C104.126 70 107.976 71.5785 110.842 74.4438L112.491 72.7942C109.186 69.4878 104.749 67.6667 100 67.6667C95.2505 67.6678 90.8137 69.4878 87.5085 72.7942L89.1582 74.4438C92.0235 71.5785 95.8735 70 100 70ZM106.616 79.6915C103.03 76.1052 96.9701 76.1052 93.3838 79.6915L95.0335 81.3412C97.725 78.6497 102.275 78.6497 104.966 81.3412L106.616 79.6915Z" fill="#1BB2D2"/>
<path d="M109.843 76.1752C104.509 70.8388 95.492 70.8388 90.158 76.1752L91.8077 77.8248C96.2492 73.3833 103.752 73.3833 108.194 77.8248L109.843 76.1752Z" fill="#1BB2D2"/>
<path d="M100 86.3333C101.289 86.3333 102.333 85.2887 102.333 84C102.333 82.7113 101.289 81.6667 100 81.6667C98.7114 81.6667 97.6667 82.7113 97.6667 84C97.6667 85.2887 98.7114 86.3333 100 86.3333Z" fill="#1BB2D2"/>
<path fill-rule="evenodd" clip-rule="evenodd" d="M26.1588 92.7205C27.3518 112.338 44.0944 127.414 63.7878 126.485C83.4812 125.557 98.7306 108.972 98.0721 89.329L100.07 89.2348C100.78 109.981 84.6788 127.502 63.882 128.483C43.0852 129.464 25.406 113.535 24.1609 92.8147L26.1588 92.7205Z" fill="#1FB8E9"/>
<path fill-rule="evenodd" clip-rule="evenodd" d="M78.181 37.4479C75.4029 17.9917 57.4941 4.32118 37.9406 6.84212C18.3871 9.36306 4.53128 27.1288 6.77878 46.6535L4.79502 46.9092C2.40642 26.289 17.0359 7.52071 37.6849 4.85853C58.3339 2.19635 77.2452 16.6404 80.1648 37.1922L78.181 37.4479Z" fill="#1FB8E9"/>
</svg>
