<svg width="1376" height="501" viewBox="0 0 1376 501" fill="none" xmlns="http://www.w3.org/2000/svg">
<path fill-rule="evenodd" clip-rule="evenodd" d="M0 481.912H5.73333C11.4667 481.912 22.9333 481.912 34.4 490.837C45.8667 499.761 57.3333 517.61 68.8 464.064C80.2667 410.518 91.7333 285.578 103.2 249.881C114.667 214.183 126.133 267.729 137.6 249.881C149.067 232.032 160.533 142.789 172 98.1673C183.467 53.5458 194.933 53.5458 206.4 124.94C217.867 196.335 229.333 339.124 240.8 419.442C252.267 499.761 263.733 517.61 275.2 455.139C286.667 392.669 298.133 249.881 309.6 169.562C321.067 89.243 332.533 71.3944 344 71.3944C355.467 71.3944 366.933 89.243 378.4 151.713C389.867 214.183 401.333 321.275 412.8 365.896C424.267 410.518 435.733 392.669 447.2 330.199C458.667 267.729 470.133 160.637 481.6 133.865C493.067 107.092 504.533 160.637 516 178.486C527.467 196.335 538.933 178.486 550.4 178.486C561.867 178.486 573.333 196.335 584.8 187.41C596.267 178.486 607.733 142.789 619.2 187.41C630.667 232.032 642.133 356.972 653.6 383.745C665.067 410.518 676.533 339.124 688 285.578C699.467 232.032 710.933 196.335 722.4 178.486C733.867 160.637 745.333 160.637 756.8 151.713C768.267 142.789 779.733 124.94 791.2 169.562C802.667 214.183 814.133 321.275 825.6 321.275C837.067 321.275 848.533 214.183 860 205.259C871.467 196.335 882.933 285.578 894.4 321.275C905.867 356.972 917.333 339.124 928.8 356.972C940.267 374.821 951.733 428.367 963.2 392.669C974.667 356.972 986.133 232.032 997.6 214.183C1009.07 196.335 1020.53 285.578 1032 330.199C1043.47 374.821 1054.93 374.821 1066.4 365.896C1077.87 356.972 1089.33 339.124 1100.8 294.502C1112.27 249.881 1123.73 178.486 1135.2 178.486C1146.67 178.486 1158.13 249.881 1169.6 312.351C1181.07 374.821 1192.53 428.367 1204 392.669C1215.47 356.972 1226.93 232.032 1238.4 187.41C1249.87 142.789 1261.33 178.486 1272.8 196.335C1284.27 214.183 1295.73 214.183 1307.2 240.956C1318.67 267.729 1330.13 321.275 1341.6 321.275C1353.07 321.275 1364.53 267.729 1370.27 240.956L1376 214.183V0H1370.27C1364.53 0 1353.07 0 1341.6 0C1330.13 0 1318.67 0 1307.2 0C1295.73 0 1284.27 0 1272.8 0C1261.33 0 1249.87 0 1238.4 0C1226.93 0 1215.47 0 1204 0C1192.53 0 1181.07 0 1169.6 0C1158.13 0 1146.67 0 1135.2 0C1123.73 0 1112.27 0 1100.8 0C1089.33 0 1077.87 0 1066.4 0C1054.93 0 1043.47 0 1032 0C1020.53 0 1009.07 0 997.6 0C986.133 0 974.667 0 963.2 0C951.733 0 940.267 0 928.8 0C917.333 0 905.867 0 894.4 0C882.933 0 871.467 0 860 0C848.533 0 837.067 0 825.6 0C814.133 0 802.667 0 791.2 0C779.733 0 768.267 0 756.8 0C745.333 0 733.867 0 722.4 0C710.933 0 699.467 0 688 0C676.533 0 665.067 0 653.6 0C642.133 0 630.667 0 619.2 0C607.733 0 596.267 0 584.8 0C573.333 0 561.867 0 550.4 0C538.933 0 527.467 0 516 0C504.533 0 493.067 0 481.6 0C470.133 0 458.667 0 447.2 0C435.733 0 424.267 0 412.8 0C401.333 0 389.867 0 378.4 0C366.933 0 355.467 0 344 0C332.533 0 321.067 0 309.6 0C298.133 0 286.667 0 275.2 0C263.733 0 252.267 0 240.8 0C229.333 0 217.867 0 206.4 0C194.933 0 183.467 0 172 0C160.533 0 149.067 0 137.6 0C126.133 0 114.667 0 103.2 0C91.7333 0 80.2667 0 68.8 0C57.3333 0 45.8667 0 34.4 0C22.9333 0 11.4667 0 5.73333 0H0V481.912Z" fill="#0099FF"/>
</svg>
